<svg width="212" height="151" viewBox="0 0 212 151" fill="none" xmlns="http://www.w3.org/2000/svg">
<ellipse cx="1.76854" cy="1.84543" rx="1.76854" ry="1.73899" fill="#EBEBEB"/>
<ellipse cx="12.7244" cy="1.84543" rx="1.76854" ry="1.73899" fill="#EBEBEB"/>
<ellipse cx="23.6802" cy="1.84543" rx="1.76854" ry="1.73899" fill="#EBEBEB"/>
<ellipse cx="34.636" cy="1.84543" rx="1.76854" ry="1.73899" fill="#EBEBEB"/>
<ellipse cx="45.5918" cy="1.84543" rx="1.76854" ry="1.73899" fill="#EBEBEB"/>
<ellipse cx="56.5476" cy="1.84543" rx="1.76854" ry="1.73899" fill="#EBEBEB"/>
<ellipse cx="67.5034" cy="1.84543" rx="1.76854" ry="1.73899" fill="#EBEBEB"/>
<ellipse cx="78.4593" cy="1.84543" rx="1.76854" ry="1.73899" fill="#EBEBEB"/>
<ellipse cx="89.415" cy="1.84543" rx="1.76854" ry="1.73899" fill="#EBEBEB"/>
<ellipse cx="100.371" cy="1.84543" rx="1.76854" ry="1.73899" fill="#EBEBEB"/>
<ellipse cx="111.327" cy="1.84543" rx="1.76854" ry="1.73899" fill="#EBEBEB"/>
<ellipse cx="122.283" cy="1.84543" rx="1.76854" ry="1.73899" fill="#EBEBEB"/>
<ellipse cx="133.238" cy="1.84543" rx="1.76854" ry="1.73899" fill="#EBEBEB"/>
<ellipse cx="144.194" cy="1.84543" rx="1.76854" ry="1.73899" fill="#EBEBEB"/>
<ellipse cx="155.15" cy="1.84543" rx="1.76854" ry="1.73899" fill="#EBEBEB"/>
<ellipse cx="166.106" cy="1.84543" rx="1.76854" ry="1.73899" fill="#EBEBEB"/>
<ellipse cx="177.062" cy="1.84543" rx="1.76854" ry="1.73899" fill="#EBEBEB"/>
<ellipse cx="188.017" cy="1.84543" rx="1.76854" ry="1.73899" fill="#EBEBEB"/>
<ellipse cx="198.973" cy="1.84543" rx="1.76854" ry="1.73899" fill="#EBEBEB"/>
<ellipse cx="209.929" cy="1.84543" rx="1.76854" ry="1.73899" fill="#EBEBEB"/>
<ellipse cx="1.76854" cy="11.6413" rx="1.76854" ry="1.73899" fill="#EBEBEB"/>
<ellipse cx="12.7244" cy="11.6413" rx="1.76854" ry="1.73899" fill="#EBEBEB"/>
<ellipse cx="23.6802" cy="11.6413" rx="1.76854" ry="1.73899" fill="#EBEBEB"/>
<ellipse cx="34.636" cy="11.6413" rx="1.76854" ry="1.73899" fill="#EBEBEB"/>
<ellipse cx="45.5918" cy="11.6413" rx="1.76854" ry="1.73899" fill="#EBEBEB"/>
<ellipse cx="56.5476" cy="11.6413" rx="1.76854" ry="1.73899" fill="#EBEBEB"/>
<ellipse cx="67.5034" cy="11.6413" rx="1.76854" ry="1.73899" fill="#EBEBEB"/>
<ellipse cx="78.4593" cy="11.6413" rx="1.76854" ry="1.73899" fill="#EBEBEB"/>
<ellipse cx="89.415" cy="11.6413" rx="1.76854" ry="1.73899" fill="#EBEBEB"/>
<ellipse cx="100.371" cy="11.6413" rx="1.76854" ry="1.73899" fill="#EBEBEB"/>
<ellipse cx="111.327" cy="11.6413" rx="1.76854" ry="1.73899" fill="#EBEBEB"/>
<ellipse cx="122.283" cy="11.6413" rx="1.76854" ry="1.73899" fill="#EBEBEB"/>
<ellipse cx="133.238" cy="11.6413" rx="1.76854" ry="1.73899" fill="#EBEBEB"/>
<ellipse cx="144.194" cy="11.6413" rx="1.76854" ry="1.73899" fill="#EBEBEB"/>
<ellipse cx="155.15" cy="11.6413" rx="1.76854" ry="1.73899" fill="#EBEBEB"/>
<ellipse cx="166.106" cy="11.6413" rx="1.76854" ry="1.73899" fill="#EBEBEB"/>
<ellipse cx="177.062" cy="11.6413" rx="1.76854" ry="1.73899" fill="#EBEBEB"/>
<ellipse cx="188.017" cy="11.6413" rx="1.76854" ry="1.73899" fill="#EBEBEB"/>
<ellipse cx="198.973" cy="11.6413" rx="1.76854" ry="1.73899" fill="#EBEBEB"/>
<ellipse cx="209.929" cy="11.6413" rx="1.76854" ry="1.73899" fill="#EBEBEB"/>
<ellipse cx="1.76854" cy="21.4372" rx="1.76854" ry="1.73899" fill="#EBEBEB"/>
<ellipse cx="12.7244" cy="21.4372" rx="1.76854" ry="1.73899" fill="#EBEBEB"/>
<ellipse cx="23.6802" cy="21.4372" rx="1.76854" ry="1.73899" fill="#EBEBEB"/>
<ellipse cx="34.636" cy="21.4372" rx="1.76854" ry="1.73899" fill="#EBEBEB"/>
<ellipse cx="45.5918" cy="21.4372" rx="1.76854" ry="1.73899" fill="#EBEBEB"/>
<ellipse cx="56.5476" cy="21.4372" rx="1.76854" ry="1.73899" fill="#EBEBEB"/>
<ellipse cx="67.5034" cy="21.4372" rx="1.76854" ry="1.73899" fill="#EBEBEB"/>
<ellipse cx="78.4593" cy="21.4372" rx="1.76854" ry="1.73899" fill="#EBEBEB"/>
<ellipse cx="89.415" cy="21.4372" rx="1.76854" ry="1.73899" fill="#EBEBEB"/>
<ellipse cx="100.371" cy="21.4372" rx="1.76854" ry="1.73899" fill="#EBEBEB"/>
<ellipse cx="111.327" cy="21.4372" rx="1.76854" ry="1.73899" fill="#EBEBEB"/>
<ellipse cx="122.283" cy="21.4372" rx="1.76854" ry="1.73899" fill="#EBEBEB"/>
<ellipse cx="133.238" cy="21.4372" rx="1.76854" ry="1.73899" fill="#EBEBEB"/>
<ellipse cx="144.194" cy="21.4372" rx="1.76854" ry="1.73899" fill="#EBEBEB"/>
<ellipse cx="155.15" cy="21.4372" rx="1.76854" ry="1.73899" fill="#EBEBEB"/>
<ellipse cx="166.106" cy="21.4372" rx="1.76854" ry="1.73899" fill="#EBEBEB"/>
<ellipse cx="177.062" cy="21.4372" rx="1.76854" ry="1.73899" fill="#EBEBEB"/>
<ellipse cx="188.017" cy="21.4372" rx="1.76854" ry="1.73899" fill="#EBEBEB"/>
<ellipse cx="198.973" cy="21.4372" rx="1.76854" ry="1.73899" fill="#EBEBEB"/>
<ellipse cx="209.929" cy="21.4372" rx="1.76854" ry="1.73899" fill="#EBEBEB"/>
<ellipse cx="1.76854" cy="31.2334" rx="1.76854" ry="1.73899" fill="#EBEBEB"/>
<ellipse cx="12.7244" cy="31.2334" rx="1.76854" ry="1.73899" fill="#EBEBEB"/>
<ellipse cx="23.6802" cy="31.2334" rx="1.76854" ry="1.73899" fill="#EBEBEB"/>
<ellipse cx="34.636" cy="31.2334" rx="1.76854" ry="1.73899" fill="#EBEBEB"/>
<ellipse cx="45.5918" cy="31.2334" rx="1.76854" ry="1.73899" fill="#EBEBEB"/>
<ellipse cx="56.5476" cy="31.2334" rx="1.76854" ry="1.73899" fill="#EBEBEB"/>
<ellipse cx="67.5034" cy="31.2334" rx="1.76854" ry="1.73899" fill="#EBEBEB"/>
<ellipse cx="78.4593" cy="31.2334" rx="1.76854" ry="1.73899" fill="#EBEBEB"/>
<ellipse cx="89.415" cy="31.2334" rx="1.76854" ry="1.73899" fill="#EBEBEB"/>
<ellipse cx="100.371" cy="31.2334" rx="1.76854" ry="1.73899" fill="#EBEBEB"/>
<ellipse cx="111.327" cy="31.2334" rx="1.76854" ry="1.73899" fill="#EBEBEB"/>
<ellipse cx="122.283" cy="31.2334" rx="1.76854" ry="1.73899" fill="#EBEBEB"/>
<ellipse cx="133.238" cy="31.2334" rx="1.76854" ry="1.73899" fill="#EBEBEB"/>
<ellipse cx="144.194" cy="31.2334" rx="1.76854" ry="1.73899" fill="#EBEBEB"/>
<ellipse cx="155.15" cy="31.2334" rx="1.76854" ry="1.73899" fill="#EBEBEB"/>
<ellipse cx="166.106" cy="31.2334" rx="1.76854" ry="1.73899" fill="#EBEBEB"/>
<ellipse cx="177.062" cy="31.2334" rx="1.76854" ry="1.73899" fill="#EBEBEB"/>
<ellipse cx="188.017" cy="31.2334" rx="1.76854" ry="1.73899" fill="#EBEBEB"/>
<ellipse cx="198.973" cy="31.2334" rx="1.76854" ry="1.73899" fill="#EBEBEB"/>
<ellipse cx="209.929" cy="31.2334" rx="1.76854" ry="1.73899" fill="#EBEBEB"/>
<ellipse cx="1.76854" cy="41.0293" rx="1.76854" ry="1.73899" fill="#EBEBEB"/>
<ellipse cx="12.7244" cy="41.0293" rx="1.76854" ry="1.73899" fill="#EBEBEB"/>
<ellipse cx="23.6802" cy="41.0293" rx="1.76854" ry="1.73899" fill="#EBEBEB"/>
<ellipse cx="34.636" cy="41.0293" rx="1.76854" ry="1.73899" fill="#EBEBEB"/>
<ellipse cx="45.5918" cy="41.0293" rx="1.76854" ry="1.73899" fill="#EBEBEB"/>
<ellipse cx="56.5476" cy="41.0293" rx="1.76854" ry="1.73899" fill="#EBEBEB"/>
<ellipse cx="67.5034" cy="41.0293" rx="1.76854" ry="1.73899" fill="#EBEBEB"/>
<ellipse cx="78.4593" cy="41.0293" rx="1.76854" ry="1.73899" fill="#EBEBEB"/>
<ellipse cx="89.415" cy="41.0293" rx="1.76854" ry="1.73899" fill="#EBEBEB"/>
<ellipse cx="100.371" cy="41.0293" rx="1.76854" ry="1.73899" fill="#EBEBEB"/>
<ellipse cx="111.327" cy="41.0293" rx="1.76854" ry="1.73899" fill="#EBEBEB"/>
<ellipse cx="122.283" cy="41.0293" rx="1.76854" ry="1.73899" fill="#EBEBEB"/>
<ellipse cx="133.238" cy="41.0293" rx="1.76854" ry="1.73899" fill="#EBEBEB"/>
<ellipse cx="144.194" cy="41.0293" rx="1.76854" ry="1.73899" fill="#EBEBEB"/>
<ellipse cx="155.15" cy="41.0293" rx="1.76854" ry="1.73899" fill="#EBEBEB"/>
<ellipse cx="166.106" cy="41.0293" rx="1.76854" ry="1.73899" fill="#EBEBEB"/>
<ellipse cx="177.062" cy="41.0293" rx="1.76854" ry="1.73899" fill="#EBEBEB"/>
<ellipse cx="188.017" cy="41.0293" rx="1.76854" ry="1.73899" fill="#EBEBEB"/>
<ellipse cx="198.973" cy="41.0293" rx="1.76854" ry="1.73899" fill="#EBEBEB"/>
<ellipse cx="209.929" cy="41.0293" rx="1.76854" ry="1.73899" fill="#EBEBEB"/>
<ellipse cx="1.76854" cy="50.8252" rx="1.76854" ry="1.73899" fill="#EBEBEB"/>
<ellipse cx="12.7244" cy="50.8252" rx="1.76854" ry="1.73899" fill="#EBEBEB"/>
<ellipse cx="23.6802" cy="50.8252" rx="1.76854" ry="1.73899" fill="#EBEBEB"/>
<ellipse cx="34.636" cy="50.8252" rx="1.76854" ry="1.73899" fill="#EBEBEB"/>
<ellipse cx="45.5918" cy="50.8252" rx="1.76854" ry="1.73899" fill="#EBEBEB"/>
<ellipse cx="56.5476" cy="50.8252" rx="1.76854" ry="1.73899" fill="#EBEBEB"/>
<ellipse cx="67.5034" cy="50.8252" rx="1.76854" ry="1.73899" fill="#EBEBEB"/>
<ellipse cx="78.4593" cy="50.8252" rx="1.76854" ry="1.73899" fill="#EBEBEB"/>
<ellipse cx="89.415" cy="50.8252" rx="1.76854" ry="1.73899" fill="#EBEBEB"/>
<ellipse cx="100.371" cy="50.8252" rx="1.76854" ry="1.73899" fill="#EBEBEB"/>
<ellipse cx="111.327" cy="50.8252" rx="1.76854" ry="1.73899" fill="#EBEBEB"/>
<ellipse cx="122.283" cy="50.8252" rx="1.76854" ry="1.73899" fill="#EBEBEB"/>
<ellipse cx="133.238" cy="50.8252" rx="1.76854" ry="1.73899" fill="#EBEBEB"/>
<ellipse cx="144.194" cy="50.8252" rx="1.76854" ry="1.73899" fill="#EBEBEB"/>
<ellipse cx="155.15" cy="50.8252" rx="1.76854" ry="1.73899" fill="#EBEBEB"/>
<ellipse cx="166.106" cy="50.8252" rx="1.76854" ry="1.73899" fill="#EBEBEB"/>
<ellipse cx="177.062" cy="50.8252" rx="1.76854" ry="1.73899" fill="#EBEBEB"/>
<ellipse cx="188.017" cy="50.8252" rx="1.76854" ry="1.73899" fill="#EBEBEB"/>
<ellipse cx="198.973" cy="50.8252" rx="1.76854" ry="1.73899" fill="#EBEBEB"/>
<ellipse cx="209.929" cy="50.8252" rx="1.76854" ry="1.73899" fill="#EBEBEB"/>
<ellipse cx="1.76854" cy="60.6213" rx="1.76854" ry="1.73899" fill="#EBEBEB"/>
<ellipse cx="12.7244" cy="60.6213" rx="1.76854" ry="1.73899" fill="#EBEBEB"/>
<ellipse cx="23.6802" cy="60.6213" rx="1.76854" ry="1.73899" fill="#EBEBEB"/>
<ellipse cx="34.636" cy="60.6213" rx="1.76854" ry="1.73899" fill="#EBEBEB"/>
<ellipse cx="45.5918" cy="60.6213" rx="1.76854" ry="1.73899" fill="#EBEBEB"/>
<ellipse cx="56.5476" cy="60.6213" rx="1.76854" ry="1.73899" fill="#EBEBEB"/>
<ellipse cx="67.5034" cy="60.6213" rx="1.76854" ry="1.73899" fill="#EBEBEB"/>
<ellipse cx="78.4593" cy="60.6213" rx="1.76854" ry="1.73899" fill="#EBEBEB"/>
<ellipse cx="89.415" cy="60.6213" rx="1.76854" ry="1.73899" fill="#EBEBEB"/>
<ellipse cx="100.371" cy="60.6213" rx="1.76854" ry="1.73899" fill="#EBEBEB"/>
<ellipse cx="111.327" cy="60.6213" rx="1.76854" ry="1.73899" fill="#EBEBEB"/>
<ellipse cx="122.283" cy="60.6213" rx="1.76854" ry="1.73899" fill="#EBEBEB"/>
<ellipse cx="133.238" cy="60.6213" rx="1.76854" ry="1.73899" fill="#EBEBEB"/>
<ellipse cx="144.194" cy="60.6213" rx="1.76854" ry="1.73899" fill="#EBEBEB"/>
<ellipse cx="155.15" cy="60.6213" rx="1.76854" ry="1.73899" fill="#EBEBEB"/>
<ellipse cx="166.106" cy="60.6213" rx="1.76854" ry="1.73899" fill="#EBEBEB"/>
<ellipse cx="177.062" cy="60.6213" rx="1.76854" ry="1.73899" fill="#EBEBEB"/>
<ellipse cx="188.017" cy="60.6213" rx="1.76854" ry="1.73899" fill="#EBEBEB"/>
<ellipse cx="198.973" cy="60.6213" rx="1.76854" ry="1.73899" fill="#EBEBEB"/>
<ellipse cx="209.929" cy="60.6213" rx="1.76854" ry="1.73899" fill="#EBEBEB"/>
<ellipse cx="1.76854" cy="70.4172" rx="1.76854" ry="1.73899" fill="#EBEBEB"/>
<ellipse cx="12.7244" cy="70.4172" rx="1.76854" ry="1.73899" fill="#EBEBEB"/>
<ellipse cx="23.6802" cy="70.4172" rx="1.76854" ry="1.73899" fill="#EBEBEB"/>
<ellipse cx="34.636" cy="70.4172" rx="1.76854" ry="1.73899" fill="#EBEBEB"/>
<ellipse cx="45.5918" cy="70.4172" rx="1.76854" ry="1.73899" fill="#EBEBEB"/>
<ellipse cx="56.5476" cy="70.4172" rx="1.76854" ry="1.73899" fill="#EBEBEB"/>
<ellipse cx="67.5034" cy="70.4172" rx="1.76854" ry="1.73899" fill="#EBEBEB"/>
<ellipse cx="78.4593" cy="70.4172" rx="1.76854" ry="1.73899" fill="#EBEBEB"/>
<ellipse cx="89.415" cy="70.4172" rx="1.76854" ry="1.73899" fill="#EBEBEB"/>
<ellipse cx="100.371" cy="70.4172" rx="1.76854" ry="1.73899" fill="#EBEBEB"/>
<ellipse cx="111.327" cy="70.4172" rx="1.76854" ry="1.73899" fill="#EBEBEB"/>
<ellipse cx="122.283" cy="70.4172" rx="1.76854" ry="1.73899" fill="#EBEBEB"/>
<ellipse cx="133.238" cy="70.4172" rx="1.76854" ry="1.73899" fill="#EBEBEB"/>
<ellipse cx="144.194" cy="70.4172" rx="1.76854" ry="1.73899" fill="#EBEBEB"/>
<ellipse cx="155.15" cy="70.4172" rx="1.76854" ry="1.73899" fill="#EBEBEB"/>
<ellipse cx="166.106" cy="70.4172" rx="1.76854" ry="1.73899" fill="#EBEBEB"/>
<ellipse cx="177.062" cy="70.4172" rx="1.76854" ry="1.73899" fill="#EBEBEB"/>
<ellipse cx="188.017" cy="70.4172" rx="1.76854" ry="1.73899" fill="#EBEBEB"/>
<ellipse cx="198.973" cy="70.4172" rx="1.76854" ry="1.73899" fill="#EBEBEB"/>
<ellipse cx="209.929" cy="70.4172" rx="1.76854" ry="1.73899" fill="#EBEBEB"/>
<ellipse cx="1.76854" cy="80.2131" rx="1.76854" ry="1.73899" fill="#EBEBEB"/>
<ellipse cx="12.7244" cy="80.2131" rx="1.76854" ry="1.73899" fill="#EBEBEB"/>
<ellipse cx="23.6802" cy="80.2131" rx="1.76854" ry="1.73899" fill="#EBEBEB"/>
<ellipse cx="34.636" cy="80.2131" rx="1.76854" ry="1.73899" fill="#EBEBEB"/>
<ellipse cx="45.5918" cy="80.2131" rx="1.76854" ry="1.73899" fill="#EBEBEB"/>
<ellipse cx="56.5476" cy="80.2131" rx="1.76854" ry="1.73899" fill="#EBEBEB"/>
<ellipse cx="67.5034" cy="80.2131" rx="1.76854" ry="1.73899" fill="#EBEBEB"/>
<ellipse cx="78.4593" cy="80.2131" rx="1.76854" ry="1.73899" fill="#EBEBEB"/>
<ellipse cx="89.415" cy="80.2131" rx="1.76854" ry="1.73899" fill="#EBEBEB"/>
<ellipse cx="100.371" cy="80.2131" rx="1.76854" ry="1.73899" fill="#EBEBEB"/>
<ellipse cx="111.327" cy="80.2131" rx="1.76854" ry="1.73899" fill="#EBEBEB"/>
<ellipse cx="122.283" cy="80.2131" rx="1.76854" ry="1.73899" fill="#EBEBEB"/>
<ellipse cx="133.238" cy="80.2131" rx="1.76854" ry="1.73899" fill="#EBEBEB"/>
<ellipse cx="144.194" cy="80.2131" rx="1.76854" ry="1.73899" fill="#EBEBEB"/>
<ellipse cx="155.15" cy="80.2131" rx="1.76854" ry="1.73899" fill="#EBEBEB"/>
<ellipse cx="166.106" cy="80.2131" rx="1.76854" ry="1.73899" fill="#EBEBEB"/>
<ellipse cx="177.062" cy="80.2131" rx="1.76854" ry="1.73899" fill="#EBEBEB"/>
<ellipse cx="188.017" cy="80.2131" rx="1.76854" ry="1.73899" fill="#EBEBEB"/>
<ellipse cx="198.973" cy="80.2131" rx="1.76854" ry="1.73899" fill="#EBEBEB"/>
<ellipse cx="209.929" cy="80.2131" rx="1.76854" ry="1.73899" fill="#EBEBEB"/>
<ellipse cx="1.76854" cy="90.009" rx="1.76854" ry="1.73899" fill="#EBEBEB"/>
<ellipse cx="12.7244" cy="90.009" rx="1.76854" ry="1.73899" fill="#EBEBEB"/>
<ellipse cx="23.6802" cy="90.009" rx="1.76854" ry="1.73899" fill="#EBEBEB"/>
<ellipse cx="34.636" cy="90.009" rx="1.76854" ry="1.73899" fill="#EBEBEB"/>
<ellipse cx="45.5918" cy="90.009" rx="1.76854" ry="1.73899" fill="#EBEBEB"/>
<ellipse cx="56.5476" cy="90.009" rx="1.76854" ry="1.73899" fill="#EBEBEB"/>
<ellipse cx="67.5034" cy="90.009" rx="1.76854" ry="1.73899" fill="#EBEBEB"/>
<ellipse cx="78.4593" cy="90.009" rx="1.76854" ry="1.73899" fill="#EBEBEB"/>
<ellipse cx="89.415" cy="90.009" rx="1.76854" ry="1.73899" fill="#EBEBEB"/>
<ellipse cx="100.371" cy="90.009" rx="1.76854" ry="1.73899" fill="#EBEBEB"/>
<ellipse cx="111.327" cy="90.009" rx="1.76854" ry="1.73899" fill="#EBEBEB"/>
<ellipse cx="122.283" cy="90.009" rx="1.76854" ry="1.73899" fill="#EBEBEB"/>
<ellipse cx="133.238" cy="90.009" rx="1.76854" ry="1.73899" fill="#EBEBEB"/>
<ellipse cx="144.194" cy="90.009" rx="1.76854" ry="1.73899" fill="#EBEBEB"/>
<ellipse cx="155.15" cy="90.009" rx="1.76854" ry="1.73899" fill="#EBEBEB"/>
<ellipse cx="166.106" cy="90.009" rx="1.76854" ry="1.73899" fill="#EBEBEB"/>
<ellipse cx="177.062" cy="90.009" rx="1.76854" ry="1.73899" fill="#EBEBEB"/>
<ellipse cx="188.017" cy="90.009" rx="1.76854" ry="1.73899" fill="#EBEBEB"/>
<ellipse cx="198.973" cy="90.009" rx="1.76854" ry="1.73899" fill="#EBEBEB"/>
<ellipse cx="209.929" cy="90.009" rx="1.76854" ry="1.73899" fill="#EBEBEB"/>
<ellipse cx="1.76854" cy="99.8052" rx="1.76854" ry="1.73899" fill="#EBEBEB"/>
<ellipse cx="12.7244" cy="99.8052" rx="1.76854" ry="1.73899" fill="#EBEBEB"/>
<ellipse cx="23.6802" cy="99.8052" rx="1.76854" ry="1.73899" fill="#EBEBEB"/>
<ellipse cx="34.636" cy="99.8052" rx="1.76854" ry="1.73899" fill="#EBEBEB"/>
<ellipse cx="45.5918" cy="99.8052" rx="1.76854" ry="1.73899" fill="#EBEBEB"/>
<ellipse cx="56.5476" cy="99.8052" rx="1.76854" ry="1.73899" fill="#EBEBEB"/>
<ellipse cx="67.5034" cy="99.8052" rx="1.76854" ry="1.73899" fill="#EBEBEB"/>
<ellipse cx="78.4593" cy="99.8052" rx="1.76854" ry="1.73899" fill="#EBEBEB"/>
<ellipse cx="89.415" cy="99.8052" rx="1.76854" ry="1.73899" fill="#EBEBEB"/>
<ellipse cx="100.371" cy="99.8052" rx="1.76854" ry="1.73899" fill="#EBEBEB"/>
<ellipse cx="111.327" cy="99.8052" rx="1.76854" ry="1.73899" fill="#EBEBEB"/>
<ellipse cx="122.283" cy="99.8052" rx="1.76854" ry="1.73899" fill="#EBEBEB"/>
<ellipse cx="133.238" cy="99.8052" rx="1.76854" ry="1.73899" fill="#EBEBEB"/>
<ellipse cx="144.194" cy="99.8052" rx="1.76854" ry="1.73899" fill="#EBEBEB"/>
<ellipse cx="155.15" cy="99.8052" rx="1.76854" ry="1.73899" fill="#EBEBEB"/>
<ellipse cx="166.106" cy="99.8052" rx="1.76854" ry="1.73899" fill="#EBEBEB"/>
<ellipse cx="177.062" cy="99.8052" rx="1.76854" ry="1.73899" fill="#EBEBEB"/>
<ellipse cx="188.017" cy="99.8052" rx="1.76854" ry="1.73899" fill="#EBEBEB"/>
<ellipse cx="198.973" cy="99.8052" rx="1.76854" ry="1.73899" fill="#EBEBEB"/>
<ellipse cx="209.929" cy="99.8052" rx="1.76854" ry="1.73899" fill="#EBEBEB"/>
<ellipse cx="1.76854" cy="109.601" rx="1.76854" ry="1.73899" fill="#EBEBEB"/>
<ellipse cx="12.7244" cy="109.601" rx="1.76854" ry="1.73899" fill="#EBEBEB"/>
<ellipse cx="23.6802" cy="109.601" rx="1.76854" ry="1.73899" fill="#EBEBEB"/>
<ellipse cx="34.636" cy="109.601" rx="1.76854" ry="1.73899" fill="#EBEBEB"/>
<ellipse cx="45.5918" cy="109.601" rx="1.76854" ry="1.73899" fill="#EBEBEB"/>
<ellipse cx="56.5476" cy="109.601" rx="1.76854" ry="1.73899" fill="#EBEBEB"/>
<ellipse cx="67.5034" cy="109.601" rx="1.76854" ry="1.73899" fill="#EBEBEB"/>
<ellipse cx="78.4593" cy="109.601" rx="1.76854" ry="1.73899" fill="#EBEBEB"/>
<ellipse cx="89.415" cy="109.601" rx="1.76854" ry="1.73899" fill="#EBEBEB"/>
<ellipse cx="100.371" cy="109.601" rx="1.76854" ry="1.73899" fill="#EBEBEB"/>
<ellipse cx="111.327" cy="109.601" rx="1.76854" ry="1.73899" fill="#EBEBEB"/>
<ellipse cx="122.283" cy="109.601" rx="1.76854" ry="1.73899" fill="#EBEBEB"/>
<ellipse cx="133.238" cy="109.601" rx="1.76854" ry="1.73899" fill="#EBEBEB"/>
<ellipse cx="144.194" cy="109.601" rx="1.76854" ry="1.73899" fill="#EBEBEB"/>
<ellipse cx="155.15" cy="109.601" rx="1.76854" ry="1.73899" fill="#EBEBEB"/>
<ellipse cx="166.106" cy="109.601" rx="1.76854" ry="1.73899" fill="#EBEBEB"/>
<ellipse cx="177.062" cy="109.601" rx="1.76854" ry="1.73899" fill="#EBEBEB"/>
<ellipse cx="188.017" cy="109.601" rx="1.76854" ry="1.73899" fill="#EBEBEB"/>
<ellipse cx="198.973" cy="109.601" rx="1.76854" ry="1.73899" fill="#EBEBEB"/>
<ellipse cx="209.929" cy="109.601" rx="1.76854" ry="1.73899" fill="#EBEBEB"/>
<ellipse cx="1.76854" cy="119.397" rx="1.76854" ry="1.73899" fill="#EBEBEB"/>
<ellipse cx="12.7244" cy="119.397" rx="1.76854" ry="1.73899" fill="#EBEBEB"/>
<ellipse cx="23.6802" cy="119.397" rx="1.76854" ry="1.73899" fill="#EBEBEB"/>
<ellipse cx="34.636" cy="119.397" rx="1.76854" ry="1.73899" fill="#EBEBEB"/>
<ellipse cx="45.5918" cy="119.397" rx="1.76854" ry="1.73899" fill="#EBEBEB"/>
<ellipse cx="56.5476" cy="119.397" rx="1.76854" ry="1.73899" fill="#EBEBEB"/>
<ellipse cx="67.5034" cy="119.397" rx="1.76854" ry="1.73899" fill="#EBEBEB"/>
<ellipse cx="78.4593" cy="119.397" rx="1.76854" ry="1.73899" fill="#EBEBEB"/>
<ellipse cx="89.415" cy="119.397" rx="1.76854" ry="1.73899" fill="#EBEBEB"/>
<ellipse cx="100.371" cy="119.397" rx="1.76854" ry="1.73899" fill="#EBEBEB"/>
<ellipse cx="111.327" cy="119.397" rx="1.76854" ry="1.73899" fill="#EBEBEB"/>
<ellipse cx="122.283" cy="119.397" rx="1.76854" ry="1.73899" fill="#EBEBEB"/>
<ellipse cx="133.238" cy="119.397" rx="1.76854" ry="1.73899" fill="#EBEBEB"/>
<ellipse cx="144.194" cy="119.397" rx="1.76854" ry="1.73899" fill="#EBEBEB"/>
<ellipse cx="155.15" cy="119.397" rx="1.76854" ry="1.73899" fill="#EBEBEB"/>
<ellipse cx="166.106" cy="119.397" rx="1.76854" ry="1.73899" fill="#EBEBEB"/>
<ellipse cx="177.062" cy="119.397" rx="1.76854" ry="1.73899" fill="#EBEBEB"/>
<ellipse cx="188.017" cy="119.397" rx="1.76854" ry="1.73899" fill="#EBEBEB"/>
<ellipse cx="198.973" cy="119.397" rx="1.76854" ry="1.73899" fill="#EBEBEB"/>
<ellipse cx="209.929" cy="119.397" rx="1.76854" ry="1.73899" fill="#EBEBEB"/>
<ellipse cx="1.76854" cy="129.193" rx="1.76854" ry="1.73899" fill="#EBEBEB"/>
<ellipse cx="12.7244" cy="129.193" rx="1.76854" ry="1.73899" fill="#EBEBEB"/>
<ellipse cx="23.6802" cy="129.193" rx="1.76854" ry="1.73899" fill="#EBEBEB"/>
<ellipse cx="34.636" cy="129.193" rx="1.76854" ry="1.73899" fill="#EBEBEB"/>
<ellipse cx="45.5918" cy="129.193" rx="1.76854" ry="1.73899" fill="#EBEBEB"/>
<ellipse cx="56.5476" cy="129.193" rx="1.76854" ry="1.73899" fill="#EBEBEB"/>
<ellipse cx="67.5034" cy="129.193" rx="1.76854" ry="1.73899" fill="#EBEBEB"/>
<ellipse cx="78.4593" cy="129.193" rx="1.76854" ry="1.73899" fill="#EBEBEB"/>
<ellipse cx="89.415" cy="129.193" rx="1.76854" ry="1.73899" fill="#EBEBEB"/>
<ellipse cx="100.371" cy="129.193" rx="1.76854" ry="1.73899" fill="#EBEBEB"/>
<ellipse cx="111.327" cy="129.193" rx="1.76854" ry="1.73899" fill="#EBEBEB"/>
<ellipse cx="122.283" cy="129.193" rx="1.76854" ry="1.73899" fill="#EBEBEB"/>
<ellipse cx="133.238" cy="129.193" rx="1.76854" ry="1.73899" fill="#EBEBEB"/>
<ellipse cx="144.194" cy="129.193" rx="1.76854" ry="1.73899" fill="#EBEBEB"/>
<ellipse cx="155.15" cy="129.193" rx="1.76854" ry="1.73899" fill="#EBEBEB"/>
<ellipse cx="166.106" cy="129.193" rx="1.76854" ry="1.73899" fill="#EBEBEB"/>
<ellipse cx="177.062" cy="129.193" rx="1.76854" ry="1.73899" fill="#EBEBEB"/>
<ellipse cx="188.017" cy="129.193" rx="1.76854" ry="1.73899" fill="#EBEBEB"/>
<ellipse cx="198.973" cy="129.193" rx="1.76854" ry="1.73899" fill="#EBEBEB"/>
<ellipse cx="209.929" cy="129.193" rx="1.76854" ry="1.73899" fill="#EBEBEB"/>
<ellipse cx="1.76854" cy="138.989" rx="1.76854" ry="1.73899" fill="#EBEBEB"/>
<ellipse cx="12.7244" cy="138.989" rx="1.76854" ry="1.73899" fill="#EBEBEB"/>
<ellipse cx="23.6802" cy="138.989" rx="1.76854" ry="1.73899" fill="#EBEBEB"/>
<ellipse cx="34.636" cy="138.989" rx="1.76854" ry="1.73899" fill="#EBEBEB"/>
<ellipse cx="45.5918" cy="138.989" rx="1.76854" ry="1.73899" fill="#EBEBEB"/>
<ellipse cx="56.5476" cy="138.989" rx="1.76854" ry="1.73899" fill="#EBEBEB"/>
<ellipse cx="67.5034" cy="138.989" rx="1.76854" ry="1.73899" fill="#EBEBEB"/>
<ellipse cx="78.4593" cy="138.989" rx="1.76854" ry="1.73899" fill="#EBEBEB"/>
<ellipse cx="89.415" cy="138.989" rx="1.76854" ry="1.73899" fill="#EBEBEB"/>
<ellipse cx="100.371" cy="138.989" rx="1.76854" ry="1.73899" fill="#EBEBEB"/>
<ellipse cx="111.327" cy="138.989" rx="1.76854" ry="1.73899" fill="#EBEBEB"/>
<ellipse cx="122.283" cy="138.989" rx="1.76854" ry="1.73899" fill="#EBEBEB"/>
<ellipse cx="133.238" cy="138.989" rx="1.76854" ry="1.73899" fill="#EBEBEB"/>
<ellipse cx="144.194" cy="138.989" rx="1.76854" ry="1.73899" fill="#EBEBEB"/>
<ellipse cx="155.15" cy="138.989" rx="1.76854" ry="1.73899" fill="#EBEBEB"/>
<ellipse cx="166.106" cy="138.989" rx="1.76854" ry="1.73899" fill="#EBEBEB"/>
<ellipse cx="177.062" cy="138.989" rx="1.76854" ry="1.73899" fill="#EBEBEB"/>
<ellipse cx="188.017" cy="138.989" rx="1.76854" ry="1.73899" fill="#EBEBEB"/>
<ellipse cx="198.973" cy="138.989" rx="1.76854" ry="1.73899" fill="#EBEBEB"/>
<ellipse cx="209.929" cy="138.989" rx="1.76854" ry="1.73899" fill="#EBEBEB"/>
<ellipse cx="1.76854" cy="148.785" rx="1.76854" ry="1.73899" fill="#EBEBEB"/>
<ellipse cx="12.7244" cy="148.785" rx="1.76854" ry="1.73899" fill="#EBEBEB"/>
<ellipse cx="23.6802" cy="148.785" rx="1.76854" ry="1.73899" fill="#EBEBEB"/>
<ellipse cx="34.636" cy="148.785" rx="1.76854" ry="1.73899" fill="#EBEBEB"/>
<ellipse cx="45.5918" cy="148.785" rx="1.76854" ry="1.73899" fill="#EBEBEB"/>
<ellipse cx="56.5476" cy="148.785" rx="1.76854" ry="1.73899" fill="#EBEBEB"/>
<ellipse cx="67.5034" cy="148.785" rx="1.76854" ry="1.73899" fill="#EBEBEB"/>
<ellipse cx="78.4593" cy="148.785" rx="1.76854" ry="1.73899" fill="#EBEBEB"/>
<ellipse cx="89.415" cy="148.785" rx="1.76854" ry="1.73899" fill="#EBEBEB"/>
<ellipse cx="100.371" cy="148.785" rx="1.76854" ry="1.73899" fill="#EBEBEB"/>
<ellipse cx="111.327" cy="148.785" rx="1.76854" ry="1.73899" fill="#EBEBEB"/>
<ellipse cx="122.283" cy="148.785" rx="1.76854" ry="1.73899" fill="#EBEBEB"/>
<ellipse cx="133.238" cy="148.785" rx="1.76854" ry="1.73899" fill="#EBEBEB"/>
<ellipse cx="144.194" cy="148.785" rx="1.76854" ry="1.73899" fill="#EBEBEB"/>
<ellipse cx="155.15" cy="148.785" rx="1.76854" ry="1.73899" fill="#EBEBEB"/>
<ellipse cx="166.106" cy="148.785" rx="1.76854" ry="1.73899" fill="#EBEBEB"/>
<ellipse cx="177.062" cy="148.785" rx="1.76854" ry="1.73899" fill="#EBEBEB"/>
<ellipse cx="188.017" cy="148.785" rx="1.76854" ry="1.73899" fill="#EBEBEB"/>
<ellipse cx="198.973" cy="148.785" rx="1.76854" ry="1.73899" fill="#EBEBEB"/>
<ellipse cx="209.929" cy="148.785" rx="1.76854" ry="1.73899" fill="#EBEBEB"/>
</svg>
